<svg id="Layer_2" data-name="Layer 2" xmlns="http://www.w3.org/2000/svg" viewBox="0 0 491.05 445.37"><defs><style>.cls-1{fill:#fff;}</style></defs><title>aws-icon</title><path id="path26" class="cls-1" d="M107.25,103.45,4.48,73V221.45l102.65,34.26.12-152.26" transform="translate(-4.48 -27.31)"/><path id="path28" class="cls-1" d="M133.9,103.45,236.68,73l-.36,148.36L133.9,255.71V103.45" transform="translate(-4.48 -27.31)"/><path id="path30" class="cls-1" d="M215.74,56.92,120,27.31,25.41,56.92,120.09,82.3l95.65-25.38" transform="translate(-4.48 -27.31)"/><path id="path32" class="cls-1" d="M366,255.71,263.32,221.45V73L366.1,103.45,366,255.71" transform="translate(-4.48 -27.31)"/><path id="path34" class="cls-1" d="M392.75,103.45,495.52,73l-.35,148.36L392.75,255.71V103.45" transform="translate(-4.48 -27.31)"/><path id="path36" class="cls-1" d="M474.59,56.92,378.8,27.31,284.26,56.92,378.94,82.3l95.65-25.38" transform="translate(-4.48 -27.31)"/><path id="path38" class="cls-1" d="M236.55,472.69,133.9,438.43V290l102.78,30.45-.13,152.27" transform="translate(-4.48 -27.31)"/><path id="path40" class="cls-1" d="M263.32,320.42,366.1,290l-.36,148.36L263.32,472.69V320.42" transform="translate(-4.48 -27.31)"/><path id="path42" class="cls-1" d="M345.16,273.89l-95.78-29.6-94.54,29.6,94.67,25.38,95.65-25.38" transform="translate(-4.48 -27.31)"/></svg>