<svg id="Layer_2" data-name="Layer 2" xmlns="http://www.w3.org/2000/svg" viewBox="0 0 427.6 486.53"><defs><style>.cls-1{fill:#fff;}.cls-2{fill:#eee;}</style></defs><title>node-icon</title><g id="layer1"><path class="cls-1" d="M463.8,139.81V360.12A22.88,22.88,0,0,1,452.32,380L261.47,490.16a22.83,22.83,0,0,1-22.94,0L47.68,380A22.88,22.88,0,0,1,36.2,360.12V139.81a23.51,23.51,0,0,1,11.48-20.26L238.53,9.79a23,23,0,0,1,22.94,0L452.32,119.55A23.47,23.47,0,0,1,463.8,139.81Z" transform="translate(-36.2 -6.73)"/></g><g id="layer1-2" data-name="layer1"><path class="cls-2" d="M463.8,139.83v220.3A22.89,22.89,0,0,1,452.32,380L238.53,9.8a23,23,0,0,1,22.94,0L452.32,119.56A23.49,23.49,0,0,1,463.8,139.83Z" transform="translate(-36.2 -6.73)"/><path class="cls-2" d="M261.47,490.17a22.83,22.83,0,0,1-22.94,0L47.68,380A22.89,22.89,0,0,1,36.2,360.13V139.83a23.51,23.51,0,0,1,11.48-20.27Z" transform="translate(-36.2 -6.73)"/></g></svg>