<svg id="Layer_2" data-name="Layer 2" xmlns="http://www.w3.org/2000/svg" viewBox="0 0 491.91 489.35"><defs><style>.cls-1{fill:#eee;}.cls-2{fill:#fff;}</style></defs><title>python-icon</title><g id="layer1"><g id="g1894"><path id="path8615" class="cls-1" d="M248.23,5.32c-124.88,0-117.08,54.16-117.08,54.16l.14,56.1H250.45v16.85H84S4,123.37,4,249.37,73.79,370.9,73.79,370.9h41.63V312.43s-2.25-69.74,68.63-69.74H302.24s66.41,1.07,66.41-64.18V70.62S378.73,5.32,248.23,5.32ZM182.52,43.05a21.44,21.44,0,1,1-21.44,21.44A21.42,21.42,0,0,1,182.52,43.05Z" transform="translate(-4.04 -5.32)"/><path id="path8620" class="cls-2" d="M251.77,494.68c124.88,0,117.08-54.16,117.08-54.16l-.14-56.1H249.55V367.57h166.5S496,376.63,496,250.63,426.21,129.1,426.21,129.1H384.58v58.47s2.25,69.74-68.63,69.74H197.76s-66.41-1.07-66.41,64.18V429.38S121.27,494.68,251.77,494.68ZM317.48,457a21.44,21.44,0,1,1,21.44-21.44A21.42,21.42,0,0,1,317.48,457Z" transform="translate(-4.04 -5.32)"/></g></g></svg>